<svg width="46" height="36" viewBox="0 0 46 36" fill="none" xmlns="http://www.w3.org/2000/svg">
<path d="M14.741 0.110943L7.34516 0.0517769C3.79516 0.0517769 0.895996 2.95094 0.895996 6.56011V13.9559C0.895996 17.5059 3.79516 20.4051 7.34516 20.4051H15.3918C14.8002 24.6059 12.0785 28.1559 8.23266 29.8718C6.99016 30.3451 6.221 31.6468 6.45766 32.9484C6.7535 34.2501 7.87766 35.1968 9.2385 35.1968C9.53433 35.1968 9.88933 35.1376 10.2443 35.0193C17.8177 32.0609 21.2493 24.1918 21.2493 17.6243V6.56011C21.2493 2.95094 18.3502 0.0517769 14.741 0.110943ZM38.8218 0.110943L31.426 0.0517769C27.8168 0.0517769 24.9177 2.95094 24.9177 6.56011V13.9559C24.9177 17.5059 27.8168 20.4051 31.426 20.4051H39.4135C38.8218 24.6059 36.1002 28.1559 32.2543 29.8718C31.0118 30.3451 30.2427 31.6468 30.5385 32.9484C30.7752 34.2501 31.8993 35.1968 33.2602 35.1968C33.6152 35.1968 33.911 35.1376 34.266 35.0193C41.8393 32.0609 45.271 24.1918 45.271 17.6243V6.56011C45.271 2.95094 42.3718 0.0517769 38.8218 0.110943ZM6.45766 13.9559V6.56011C6.45766 6.02761 6.87183 5.61344 7.34516 5.61344H14.741C15.2735 5.61344 15.6877 6.02761 15.6877 6.56011V14.8434H7.34516C6.87183 14.8434 6.45766 14.4884 6.45766 13.9559ZM30.4793 13.9559V6.56011C30.4793 6.02761 30.8935 5.61344 31.426 5.61344H38.8218C39.2952 5.61344 39.7093 6.02761 39.7093 6.56011V14.8434H31.426C30.8935 14.8434 30.4793 14.4884 30.4793 13.9559Z" fill="white"/>
</svg>
